<svg width="96" height="95" viewBox="0 0 96 95" fill="none" xmlns="http://www.w3.org/2000/svg">
<g id="mail-check">
<path id="Vector" d="M87.6162 51.4838V23.8717C87.6162 21.7794 86.785 19.7727 85.3055 18.2932C83.826 16.8137 81.8194 15.9825 79.7271 15.9825H16.6138C14.5214 15.9825 12.5148 16.8137 11.0353 18.2932C9.55579 19.7727 8.72461 21.7794 8.72461 23.8717V71.2067C8.72461 75.5457 12.2747 79.0958 16.6138 79.0958H48.1704M87.6162 27.8163L52.2333 50.3004C51.0155 51.0634 49.6075 51.468 48.1704 51.468C46.7333 51.468 45.3253 51.0634 44.1075 50.3004L8.72461 27.8163M63.9487 75.1512L71.8379 83.0404L87.6162 67.2621" stroke="#09090B" stroke-width="7.88916" stroke-linecap="round" stroke-linejoin="round"/>
</g>
</svg>
